<?xml version="1.0" encoding="utf-8" standalone="no"?>
<!DOCTYPE svg PUBLIC "-//W3C//DTD SVG 1.1//EN"
  "http://www.w3.org/Graphics/SVG/1.1/DTD/svg11.dtd">
<svg xmlns:xlink="http://www.w3.org/1999/xlink" width="460.8pt" height="469.109129pt" viewBox="0 0 460.8 469.109129" xmlns="http://www.w3.org/2000/svg" version="1.1">
 <metadata>
  <rdf:RDF xmlns:dc="http://purl.org/dc/elements/1.1/" xmlns:cc="http://creativecommons.org/ns#" xmlns:rdf="http://www.w3.org/1999/02/22-rdf-syntax-ns#">
   <cc:Work>
    <dc:type rdf:resource="http://purl.org/dc/dcmitype/StillImage"/>
    <dc:date>2025-08-08T18:52:06.687295</dc:date>
    <dc:format>image/svg+xml</dc:format>
    <dc:creator>
     <cc:Agent>
      <dc:title>Matplotlib v3.6.3, https://matplotlib.org/</dc:title>
     </cc:Agent>
    </dc:creator>
   </cc:Work>
  </rdf:RDF>
 </metadata>
 <defs>
  <style type="text/css">*{stroke-linejoin: round; stroke-linecap: butt}</style>
 </defs>
 <g id="figure_1">
  <g id="patch_1">
   <path d="M 0 469.109129 
L 460.8 469.109129 
L 460.8 -0 
L 0 -0 
z
" style="fill: #ffffff"/>
  </g>
  <g id="axes_1">
   <g id="line2d_1">
    <path d="M 230.4 56.655301 
L 27.490909 204.077385 
" clip-path="url(#p15efd84253)" style="fill: none; stroke: #1f77b4; stroke-width: 2; stroke-linecap: square"/>
   </g>
   <g id="line2d_2">
    <path d="M 27.490909 204.077385 
L 104.995285 442.611328 
" clip-path="url(#p15efd84253)" style="fill: none; stroke: #ff7f0e; stroke-width: 2; stroke-linecap: square"/>
   </g>
   <g id="line2d_3">
    <path d="M 104.995285 442.611328 
L 355.804715 442.611328 
" clip-path="url(#p15efd84253)" style="fill: none; stroke: #2ca02c; stroke-width: 2; stroke-linecap: square"/>
   </g>
   <g id="line2d_4">
    <path d="M 355.804715 442.611328 
L 433.309091 204.077385 
" clip-path="url(#p15efd84253)" style="fill: none; stroke: #d62728; stroke-width: 2; stroke-linecap: square"/>
   </g>
   <g id="line2d_5">
    <path d="M 433.309091 204.077385 
L 230.4 56.655301 
" clip-path="url(#p15efd84253)" style="fill: none; stroke: #9467bd; stroke-width: 2; stroke-linecap: square"/>
   </g>
   <g id="line2d_6">
    <path d="M 230.4 56.655301 
L 104.995285 442.611328 
" clip-path="url(#p15efd84253)" style="fill: none; stroke-dasharray: 5.92,2.56; stroke-dashoffset: 0; stroke: #8c564b; stroke-width: 1.6"/>
   </g>
   <g id="line2d_7">
    <path d="M 104.995285 442.611328 
L 433.309091 204.077385 
" clip-path="url(#p15efd84253)" style="fill: none; stroke-dasharray: 5.92,2.56; stroke-dashoffset: 0; stroke: #e377c2; stroke-width: 1.6"/>
   </g>
   <g id="line2d_8">
    <path d="M 433.309091 204.077385 
L 27.490909 204.077385 
" clip-path="url(#p15efd84253)" style="fill: none; stroke-dasharray: 5.92,2.56; stroke-dashoffset: 0; stroke: #7f7f7f; stroke-width: 1.6"/>
   </g>
   <g id="line2d_9">
    <path d="M 27.490909 204.077385 
L 355.804715 442.611328 
" clip-path="url(#p15efd84253)" style="fill: none; stroke-dasharray: 5.92,2.56; stroke-dashoffset: 0; stroke: #bcbd22; stroke-width: 1.6"/>
   </g>
   <g id="line2d_10">
    <path d="M 355.804715 442.611328 
L 230.4 56.655301 
" clip-path="url(#p15efd84253)" style="fill: none; stroke-dasharray: 5.92,2.56; stroke-dashoffset: 0; stroke: #17becf; stroke-width: 1.6"/>
   </g>
   <g id="line2d_11">
    <path d="M 230.4 173.998486 
L 230.4 56.655301 
" clip-path="url(#p15efd84253)" style="fill: none; stroke: #1f77b4; stroke-opacity: 0.5; stroke-width: 0.9; stroke-linecap: square"/>
   </g>
   <g id="line2d_12">
    <path d="M 230.4 173.998486 
L 27.490909 204.077385 
" clip-path="url(#p15efd84253)" style="fill: none; stroke: #ff7f0e; stroke-opacity: 0.5; stroke-width: 0.9; stroke-linecap: square"/>
   </g>
   <g id="line2d_13">
    <path d="M 230.4 173.998486 
L 104.995285 442.611328 
" clip-path="url(#p15efd84253)" style="fill: none; stroke: #2ca02c; stroke-opacity: 0.5; stroke-width: 0.9; stroke-linecap: square"/>
   </g>
   <g id="line2d_14">
    <path d="M 230.4 173.998486 
L 355.804715 442.611328 
" clip-path="url(#p15efd84253)" style="fill: none; stroke: #d62728; stroke-opacity: 0.5; stroke-width: 0.9; stroke-linecap: square"/>
   </g>
   <g id="line2d_15">
    <path d="M 230.4 173.998486 
L 433.309091 204.077385 
" clip-path="url(#p15efd84253)" style="fill: none; stroke: #9467bd; stroke-opacity: 0.5; stroke-width: 0.9; stroke-linecap: square"/>
   </g>
   <g id="line2d_16">
    <path d="M 147.254581 318.010575 
L 230.4 56.655301 
" clip-path="url(#p15efd84253)" style="fill: none; stroke: #8c564b; stroke-opacity: 0.5; stroke-width: 0.9; stroke-linecap: square"/>
   </g>
   <g id="line2d_17">
    <path d="M 147.254581 318.010575 
L 27.490909 204.077385 
" clip-path="url(#p15efd84253)" style="fill: none; stroke: #e377c2; stroke-opacity: 0.5; stroke-width: 0.9; stroke-linecap: square"/>
   </g>
   <g id="line2d_18">
    <path d="M 147.254581 318.010575 
L 104.995285 442.611328 
" clip-path="url(#p15efd84253)" style="fill: none; stroke: #7f7f7f; stroke-opacity: 0.5; stroke-width: 0.9; stroke-linecap: square"/>
   </g>
   <g id="line2d_19">
    <path d="M 147.254581 318.010575 
L 355.804715 442.611328 
" clip-path="url(#p15efd84253)" style="fill: none; stroke: #bcbd22; stroke-opacity: 0.5; stroke-width: 0.9; stroke-linecap: square"/>
   </g>
   <g id="line2d_20">
    <path d="M 147.254581 318.010575 
L 433.309091 204.077385 
" clip-path="url(#p15efd84253)" style="fill: none; stroke: #17becf; stroke-opacity: 0.5; stroke-width: 0.9; stroke-linecap: square"/>
   </g>
   <g id="line2d_21">
    <path d="M 313.545419 318.010575 
L 230.4 56.655301 
" clip-path="url(#p15efd84253)" style="fill: none; stroke: #1f77b4; stroke-opacity: 0.5; stroke-width: 0.9; stroke-linecap: square"/>
   </g>
   <g id="line2d_22">
    <path d="M 313.545419 318.010575 
L 27.490909 204.077385 
" clip-path="url(#p15efd84253)" style="fill: none; stroke: #ff7f0e; stroke-opacity: 0.5; stroke-width: 0.9; stroke-linecap: square"/>
   </g>
   <g id="line2d_23">
    <path d="M 313.545419 318.010575 
L 104.995285 442.611328 
" clip-path="url(#p15efd84253)" style="fill: none; stroke: #2ca02c; stroke-opacity: 0.5; stroke-width: 0.9; stroke-linecap: square"/>
   </g>
   <g id="line2d_24">
    <path d="M 313.545419 318.010575 
L 355.804715 442.611328 
" clip-path="url(#p15efd84253)" style="fill: none; stroke: #d62728; stroke-opacity: 0.5; stroke-width: 0.9; stroke-linecap: square"/>
   </g>
   <g id="line2d_25">
    <path d="M 313.545419 318.010575 
L 433.309091 204.077385 
" clip-path="url(#p15efd84253)" style="fill: none; stroke: #9467bd; stroke-opacity: 0.5; stroke-width: 0.9; stroke-linecap: square"/>
   </g>
   <g id="line2d_26">
    <path d="M 230.4 195.33361 
L 230.4 173.998486 
" clip-path="url(#p15efd84253)" style="fill: none; stroke: #8c564b; stroke-opacity: 0.8; stroke-width: 1.2; stroke-linecap: square"/>
   </g>
   <g id="line2d_27">
    <path d="M 230.4 195.33361 
L 147.254581 318.010575 
" clip-path="url(#p15efd84253)" style="fill: none; stroke: #e377c2; stroke-opacity: 0.8; stroke-width: 1.2; stroke-linecap: square"/>
   </g>
   <g id="line2d_28">
    <path d="M 230.4 195.33361 
L 313.545419 318.010575 
" clip-path="url(#p15efd84253)" style="fill: none; stroke: #7f7f7f; stroke-opacity: 0.8; stroke-width: 1.2; stroke-linecap: square"/>
   </g>
   <g id="line2d_29">
    <path d="M 230.4 270.006545 
L 230.4 173.998486 
" clip-path="url(#p15efd84253)" style="fill: none; stroke: #bcbd22; stroke-opacity: 0.8; stroke-width: 1.2; stroke-linecap: square"/>
   </g>
   <g id="line2d_30">
    <path d="M 230.4 270.006545 
L 147.254581 318.010575 
" clip-path="url(#p15efd84253)" style="fill: none; stroke: #17becf; stroke-opacity: 0.8; stroke-width: 1.2; stroke-linecap: square"/>
   </g>
   <g id="line2d_31">
    <path d="M 230.4 270.006545 
L 313.545419 318.010575 
" clip-path="url(#p15efd84253)" style="fill: none; stroke: #1f77b4; stroke-opacity: 0.8; stroke-width: 1.2; stroke-linecap: square"/>
   </g>
   <g id="line2d_32">
    <path d="M 230.4 344.679481 
L 230.4 173.998486 
" clip-path="url(#p15efd84253)" style="fill: none; stroke: #ff7f0e; stroke-opacity: 0.8; stroke-width: 1.2; stroke-linecap: square"/>
   </g>
   <g id="line2d_33">
    <path d="M 230.4 344.679481 
L 147.254581 318.010575 
" clip-path="url(#p15efd84253)" style="fill: none; stroke: #2ca02c; stroke-opacity: 0.8; stroke-width: 1.2; stroke-linecap: square"/>
   </g>
   <g id="line2d_34">
    <path d="M 230.4 344.679481 
L 313.545419 318.010575 
" clip-path="url(#p15efd84253)" style="fill: none; stroke: #d62728; stroke-opacity: 0.8; stroke-width: 1.2; stroke-linecap: square"/>
   </g>
   <g id="line2d_35">
    <path d="M 230.4 173.998486 
L 147.254581 318.010575 
" clip-path="url(#p15efd84253)" style="fill: none; stroke: #9467bd; stroke-width: 1.4; stroke-linecap: square"/>
   </g>
   <g id="line2d_36">
    <path d="M 147.254581 318.010575 
L 313.545419 318.010575 
" clip-path="url(#p15efd84253)" style="fill: none; stroke: #8c564b; stroke-width: 1.4; stroke-linecap: square"/>
   </g>
   <g id="line2d_37">
    <path d="M 313.545419 318.010575 
L 230.4 173.998486 
" clip-path="url(#p15efd84253)" style="fill: none; stroke: #e377c2; stroke-width: 1.4; stroke-linecap: square"/>
   </g>
   <g id="PathCollection_1">
    <defs>
     <path id="m97f84862a2" d="M -8.944272 8.944272 
L 8.944272 -8.944272 
M -8.944272 -8.944272 
L 8.944272 8.944272 
" style="stroke: #1f77b4; stroke-width: 1.5"/>
    </defs>
    <g clip-path="url(#p15efd84253)">
     <use xlink:href="#m97f84862a2" x="230.4" y="56.655301" style="fill: #1f77b4; stroke: #1f77b4; stroke-width: 1.5"/>
    </g>
   </g>
   <g id="text_1">
    <!-- ε -->
    <g style="fill: #333333" transform="translate(225.94625 61.070301) scale(0.16 -0.16)">
     <defs>
      <path id="DejaVuSans-Bold-3b5" d="M 1116 1888 
Q 778 1966 606 2163 
Q 431 2363 431 2666 
Q 431 3138 794 3359 
Q 1156 3584 1881 3584 
Q 2153 3584 2431 3547 
Q 2713 3509 2997 3434 
L 2997 2688 
Q 2809 2772 2543 2822 
Q 2278 2872 2094 2872 
Q 1797 2872 1625 2763 
Q 1450 2650 1450 2519 
Q 1450 2381 1628 2275 
Q 1784 2181 2150 2181 
L 2538 2181 
L 2538 1481 
L 2169 1481 
Q 1766 1481 1572 1366 
Q 1363 1244 1363 1056 
Q 1363 875 1569 750 
Q 1772 628 2134 628 
Q 2375 628 2641 691 
Q 2934 759 3156 872 
L 3156 84 
Q 2875 -3 2588 -47 
Q 2297 -91 2009 -91 
Q 1194 -91 769 181 
Q 344 453 344 994 
Q 344 1344 541 1569 
Q 738 1794 1116 1888 
z
" transform="scale(0.015625)"/>
     </defs>
     <use xlink:href="#DejaVuSans-Bold-3b5"/>
    </g>
   </g>
   <g id="PathCollection_2">
    <defs>
     <path id="m0bba154ef3" d="M -8.944272 8.944272 
L 8.944272 -8.944272 
M -8.944272 -8.944272 
L 8.944272 8.944272 
" style="stroke: #ff7f0e; stroke-width: 1.5"/>
    </defs>
    <g clip-path="url(#p15efd84253)">
     <use xlink:href="#m0bba154ef3" x="27.490909" y="204.077385" style="fill: #ff7f0e; stroke: #ff7f0e; stroke-width: 1.5"/>
    </g>
   </g>
   <g id="text_2">
    <!-- π -->
    <g style="fill: #333333" transform="translate(21.162159 208.492385) scale(0.16 -0.16)">
     <defs>
      <path id="DejaVuSans-Bold-3c0" d="M 269 3500 
L 4684 3500 
L 4684 2700 
L 4072 2700 
L 4072 1131 
Q 4072 728 4148 629 
Q 4225 531 4400 531 
Q 4578 531 4678 544 
L 4678 -44 
Q 4484 -122 3822 -122 
Q 3613 -122 3409 -63 
Q 3084 34 2994 319 
Q 2953 453 2953 728 
L 2953 2700 
L 2000 2700 
L 2000 0 
L 881 0 
L 881 2700 
L 269 2700 
L 269 3500 
z
" transform="scale(0.015625)"/>
     </defs>
     <use xlink:href="#DejaVuSans-Bold-3c0"/>
    </g>
   </g>
   <g id="PathCollection_3">
    <defs>
     <path id="md2b150ccbc" d="M -8.944272 8.944272 
L 8.944272 -8.944272 
M -8.944272 -8.944272 
L 8.944272 8.944272 
" style="stroke: #2ca02c; stroke-width: 1.5"/>
    </defs>
    <g clip-path="url(#p15efd84253)">
     <use xlink:href="#md2b150ccbc" x="104.995285" y="442.611328" style="fill: #2ca02c; stroke: #2ca02c; stroke-width: 1.5"/>
    </g>
   </g>
   <g id="text_3">
    <!-- c -->
    <g style="fill: #333333" transform="translate(100.252785 447.026328) scale(0.16 -0.16)">
     <defs>
      <path id="DejaVuSans-Bold-63" d="M 3366 3391 
L 3366 2478 
Q 3138 2634 2908 2709 
Q 2678 2784 2431 2784 
Q 1963 2784 1702 2511 
Q 1441 2238 1441 1747 
Q 1441 1256 1702 982 
Q 1963 709 2431 709 
Q 2694 709 2930 787 
Q 3166 866 3366 1019 
L 3366 103 
Q 3103 6 2833 -42 
Q 2563 -91 2291 -91 
Q 1344 -91 809 395 
Q 275 881 275 1747 
Q 275 2613 809 3098 
Q 1344 3584 2291 3584 
Q 2566 3584 2833 3536 
Q 3100 3488 3366 3391 
z
" transform="scale(0.015625)"/>
     </defs>
     <use xlink:href="#DejaVuSans-Bold-63"/>
    </g>
   </g>
   <g id="PathCollection_4">
    <defs>
     <path id="m4cc5346e07" d="M -8.944272 8.944272 
L 8.944272 -8.944272 
M -8.944272 -8.944272 
L 8.944272 8.944272 
" style="stroke: #d62728; stroke-width: 1.5"/>
    </defs>
    <g clip-path="url(#p15efd84253)">
     <use xlink:href="#m4cc5346e07" x="355.804715" y="442.611328" style="fill: #d62728; stroke: #d62728; stroke-width: 1.5"/>
    </g>
   </g>
   <g id="text_4">
    <!-- e -->
    <g style="fill: #333333" transform="translate(350.378465 447.026328) scale(0.16 -0.16)">
     <defs>
      <path id="DejaVuSans-Bold-65" d="M 4031 1759 
L 4031 1441 
L 1416 1441 
Q 1456 1047 1700 850 
Q 1944 653 2381 653 
Q 2734 653 3104 758 
Q 3475 863 3866 1075 
L 3866 213 
Q 3469 63 3072 -14 
Q 2675 -91 2278 -91 
Q 1328 -91 801 392 
Q 275 875 275 1747 
Q 275 2603 792 3093 
Q 1309 3584 2216 3584 
Q 3041 3584 3536 3087 
Q 4031 2591 4031 1759 
z
M 2881 2131 
Q 2881 2450 2695 2645 
Q 2509 2841 2209 2841 
Q 1884 2841 1681 2658 
Q 1478 2475 1428 2131 
L 2881 2131 
z
" transform="scale(0.015625)"/>
     </defs>
     <use xlink:href="#DejaVuSans-Bold-65"/>
    </g>
   </g>
   <g id="PathCollection_5">
    <defs>
     <path id="ma5b5e2df4e" d="M -8.944272 8.944272 
L 8.944272 -8.944272 
M -8.944272 -8.944272 
L 8.944272 8.944272 
" style="stroke: #9467bd; stroke-width: 1.5"/>
    </defs>
    <g clip-path="url(#p15efd84253)">
     <use xlink:href="#ma5b5e2df4e" x="433.309091" y="204.077385" style="fill: #9467bd; stroke: #9467bd; stroke-width: 1.5"/>
    </g>
   </g>
   <g id="text_5">
    <!-- φ -->
    <g style="fill: #333333" transform="translate(427.051591 208.492385) scale(0.16 -0.16)">
     <defs>
      <path id="DejaVuSans-Bold-3c6" d="M 3216 3531 
Q 3688 3531 4125 3131 
Q 4638 2666 4638 1747 
Q 4638 200 3081 0 
L 3081 -1331 
L 1969 -1331 
L 1969 0 
Q 413 200 413 1747 
Q 413 2609 925 3097 
Q 1347 3500 1872 3500 
L 1872 2784 
Q 1800 2778 1667 2514 
Q 1534 2250 1534 1859 
Q 1534 1113 1969 800 
L 1969 2025 
Q 1969 3531 3216 3531 
z
M 3250 2700 
Q 3081 2681 3081 2025 
L 3081 800 
Q 3500 1103 3516 1859 
Q 3525 2278 3447 2495 
Q 3369 2713 3250 2700 
z
" transform="scale(0.015625)"/>
     </defs>
     <use xlink:href="#DejaVuSans-Bold-3c6"/>
    </g>
   </g>
   <g id="text_6">
    <!-- ∇S -->
    <g style="fill: #333333" transform="translate(220.481875 177.861611) scale(0.14 -0.14)">
     <defs>
      <path id="DejaVuSans-Bold-2207" d="M 2228 1134 
L 3250 3803 
L 1209 3803 
L 2228 1134 
z
M 1759 0 
L 0 4603 
L 4459 4603 
L 2700 0 
L 1759 0 
z
" transform="scale(0.015625)"/>
      <path id="DejaVuSans-Bold-53" d="M 3834 4519 
L 3834 3531 
Q 3450 3703 3084 3790 
Q 2719 3878 2394 3878 
Q 1963 3878 1756 3759 
Q 1550 3641 1550 3391 
Q 1550 3203 1689 3098 
Q 1828 2994 2194 2919 
L 2706 2816 
Q 3484 2659 3812 2340 
Q 4141 2022 4141 1434 
Q 4141 663 3683 286 
Q 3225 -91 2284 -91 
Q 1841 -91 1394 -6 
Q 947 78 500 244 
L 500 1259 
Q 947 1022 1364 901 
Q 1781 781 2169 781 
Q 2563 781 2772 912 
Q 2981 1044 2981 1288 
Q 2981 1506 2839 1625 
Q 2697 1744 2272 1838 
L 1806 1941 
Q 1106 2091 782 2419 
Q 459 2747 459 3303 
Q 459 4000 909 4375 
Q 1359 4750 2203 4750 
Q 2588 4750 2994 4692 
Q 3400 4634 3834 4519 
z
" transform="scale(0.015625)"/>
     </defs>
     <use xlink:href="#DejaVuSans-Bold-2207"/>
     <use xlink:href="#DejaVuSans-Bold-53" x="69.677734"/>
    </g>
   </g>
   <g id="text_7">
    <!-- λV -->
    <g style="fill: #333333" transform="translate(137.40755 321.8737) scale(0.14 -0.14)">
     <defs>
      <path id="DejaVuSans-Bold-3bb" d="M 1544 3188 
L 1350 3713 
Q 1263 3953 1145 4040 
Q 1028 4128 734 4128 
L 384 4128 
L 384 4863 
L 1031 4863 
Q 1600 4863 1908 4622 
Q 2216 4381 2428 3813 
L 3859 0 
L 2741 0 
L 2044 1838 
L 1309 0 
L 191 0 
L 1544 3188 
z
" transform="scale(0.015625)"/>
      <path id="DejaVuSans-Bold-56" d="M 31 4666 
L 1241 4666 
L 2478 1222 
L 3713 4666 
L 4922 4666 
L 3194 0 
L 1759 0 
L 31 4666 
z
" transform="scale(0.015625)"/>
     </defs>
     <use xlink:href="#DejaVuSans-Bold-3bb"/>
     <use xlink:href="#DejaVuSans-Bold-56" x="63.28125"/>
    </g>
   </g>
   <g id="text_8">
    <!-- ψA -->
    <g style="fill: #333333" transform="translate(302.570731 321.8737) scale(0.14 -0.14)">
     <defs>
      <path id="DejaVuSans-Bold-3c8" d="M 3081 800 
Q 3516 1113 3516 1859 
L 3516 3500 
L 4634 3500 
L 4634 1838 
Q 4634 200 3081 0 
L 3081 -1331 
L 1969 -1331 
L 1969 0 
Q 416 200 416 1838 
L 416 3500 
L 1534 3500 
L 1534 1859 
Q 1534 1113 1969 800 
L 1969 3500 
L 3081 3500 
L 3081 800 
z
" transform="scale(0.015625)"/>
      <path id="DejaVuSans-Bold-41" d="M 3419 850 
L 1538 850 
L 1241 0 
L 31 0 
L 1759 4666 
L 3194 4666 
L 4922 0 
L 3713 0 
L 3419 850 
z
M 1838 1716 
L 3116 1716 
L 2478 3572 
L 1838 1716 
z
" transform="scale(0.015625)"/>
     </defs>
     <use xlink:href="#DejaVuSans-Bold-3c8"/>
     <use xlink:href="#DejaVuSans-Bold-41" x="79.394531"/>
    </g>
   </g>
   <g id="text_9">
    <!-- ∆ -->
    <g style="fill: #333333" transform="translate(224.82625 199.74861) scale(0.16 -0.16)">
     <defs>
      <path id="DejaVuSans-Bold-2206" d="M 2228 3469 
L 1209 800 
L 3250 800 
L 2228 3469 
z
M 1759 4603 
L 2700 4603 
L 4459 0 
L 0 0 
L 1759 4603 
z
" transform="scale(0.015625)"/>
     </defs>
     <use xlink:href="#DejaVuSans-Bold-2206"/>
    </g>
   </g>
   <g id="text_10">
    <!-- R(·) -->
    <g style="fill: #333333" transform="translate(213.88875 274.421545) scale(0.16 -0.16)">
     <defs>
      <path id="DejaVuSans-Bold-52" d="M 2297 2597 
Q 2675 2597 2839 2737 
Q 3003 2878 3003 3200 
Q 3003 3519 2839 3656 
Q 2675 3794 2297 3794 
L 1791 3794 
L 1791 2597 
L 2297 2597 
z
M 1791 1766 
L 1791 0 
L 588 0 
L 588 4666 
L 2425 4666 
Q 3347 4666 3776 4356 
Q 4206 4047 4206 3378 
Q 4206 2916 3982 2619 
Q 3759 2322 3309 2181 
Q 3556 2125 3751 1926 
Q 3947 1728 4147 1325 
L 4800 0 
L 3519 0 
L 2950 1159 
Q 2778 1509 2601 1637 
Q 2425 1766 2131 1766 
L 1791 1766 
z
" transform="scale(0.015625)"/>
      <path id="DejaVuSans-Bold-28" d="M 2413 -844 
L 1484 -844 
Q 1006 -72 778 623 
Q 550 1319 550 2003 
Q 550 2688 779 3389 
Q 1009 4091 1484 4856 
L 2413 4856 
Q 2013 4116 1813 3408 
Q 1613 2700 1613 2009 
Q 1613 1319 1811 609 
Q 2009 -100 2413 -844 
z
" transform="scale(0.015625)"/>
      <path id="DejaVuSans-Bold-b7" d="M 653 2828 
L 1778 2828 
L 1778 1619 
L 653 1619 
L 653 2828 
z
" transform="scale(0.015625)"/>
      <path id="DejaVuSans-Bold-29" d="M 513 -844 
Q 913 -100 1113 609 
Q 1313 1319 1313 2009 
Q 1313 2700 1113 3408 
Q 913 4116 513 4856 
L 1441 4856 
Q 1916 4091 2145 3389 
Q 2375 2688 2375 2003 
Q 2375 1319 2147 623 
Q 1919 -72 1441 -844 
L 513 -844 
z
" transform="scale(0.015625)"/>
     </defs>
     <use xlink:href="#DejaVuSans-Bold-52"/>
     <use xlink:href="#DejaVuSans-Bold-28" x="77.001953"/>
     <use xlink:href="#DejaVuSans-Bold-b7" x="122.705078"/>
     <use xlink:href="#DejaVuSans-Bold-29" x="160.693359"/>
    </g>
   </g>
   <g id="text_11">
    <!-- ⊚ -->
    <g style="fill: #333333" transform="translate(223.69625 349.094481) scale(0.16 -0.16)">
     <defs>
      <path id="DejaVuSans-Bold-229a" d="M 2684 2544 
Q 2459 2544 2303 2387 
Q 2147 2231 2147 2006 
Q 2147 1781 2301 1628 
Q 2456 1475 2684 1475 
Q 2909 1475 3065 1629 
Q 3222 1784 3222 2006 
Q 3222 2231 3064 2387 
Q 2906 2544 2684 2544 
z
M 2684 3050 
Q 2891 3050 3081 2970 
Q 3272 2891 3422 2744 
Q 3569 2594 3645 2406 
Q 3722 2219 3722 2006 
Q 3722 1797 3645 1608 
Q 3569 1419 3428 1278 
Q 3278 1128 3084 1048 
Q 2891 969 2678 969 
Q 2238 969 1939 1267 
Q 1641 1566 1641 2006 
Q 1641 2447 1942 2748 
Q 2244 3050 2684 3050 
z
M 3247 3378 
Q 2984 3488 2681 3488 
Q 2378 3488 2116 3378 
Q 1856 3269 1641 3053 
Q 1422 2834 1315 2575 
Q 1209 2316 1209 2006 
Q 1209 1706 1315 1447 
Q 1422 1188 1641 969 
Q 1856 753 2116 644 
Q 2378 534 2681 534 
Q 2984 534 3247 644 
Q 3506 753 3722 969 
Q 3941 1188 4047 1447 
Q 4153 1706 4153 2006 
Q 4153 2316 4047 2575 
Q 3941 2834 3722 3053 
Q 3506 3269 3247 3378 
z
M 1878 3956 
Q 2250 4113 2681 4113 
Q 3113 4113 3484 3956 
Q 3856 3800 4163 3494 
Q 4472 3184 4625 2813 
Q 4778 2444 4778 2006 
Q 4778 1578 4625 1206 
Q 4472 838 4163 528 
Q 3856 222 3484 65 
Q 3113 -91 2681 -91 
Q 2250 -91 1878 65 
Q 1506 222 1200 528 
Q 891 838 738 1206 
Q 584 1578 584 2006 
Q 584 2444 738 2813 
Q 891 3184 1200 3494 
Q 1506 3800 1878 3956 
z
" transform="scale(0.015625)"/>
     </defs>
     <use xlink:href="#DejaVuSans-Bold-229a"/>
    </g>
   </g>
   <g id="text_12">
    <!-- Delta Ontomolecule — Full Pentagram Schema -->
    <g style="fill: #333333" transform="translate(43.03 19.3575) scale(0.16 -0.16)">
     <defs>
      <path id="DejaVuSans-44" d="M 1259 4147 
L 1259 519 
L 2022 519 
Q 2988 519 3436 956 
Q 3884 1394 3884 2338 
Q 3884 3275 3436 3711 
Q 2988 4147 2022 4147 
L 1259 4147 
z
M 628 4666 
L 1925 4666 
Q 3281 4666 3915 4102 
Q 4550 3538 4550 2338 
Q 4550 1131 3912 565 
Q 3275 0 1925 0 
L 628 0 
L 628 4666 
z
" transform="scale(0.015625)"/>
      <path id="DejaVuSans-65" d="M 3597 1894 
L 3597 1613 
L 953 1613 
Q 991 1019 1311 708 
Q 1631 397 2203 397 
Q 2534 397 2845 478 
Q 3156 559 3463 722 
L 3463 178 
Q 3153 47 2828 -22 
Q 2503 -91 2169 -91 
Q 1331 -91 842 396 
Q 353 884 353 1716 
Q 353 2575 817 3079 
Q 1281 3584 2069 3584 
Q 2775 3584 3186 3129 
Q 3597 2675 3597 1894 
z
M 3022 2063 
Q 3016 2534 2758 2815 
Q 2500 3097 2075 3097 
Q 1594 3097 1305 2825 
Q 1016 2553 972 2059 
L 3022 2063 
z
" transform="scale(0.015625)"/>
      <path id="DejaVuSans-6c" d="M 603 4863 
L 1178 4863 
L 1178 0 
L 603 0 
L 603 4863 
z
" transform="scale(0.015625)"/>
      <path id="DejaVuSans-74" d="M 1172 4494 
L 1172 3500 
L 2356 3500 
L 2356 3053 
L 1172 3053 
L 1172 1153 
Q 1172 725 1289 603 
Q 1406 481 1766 481 
L 2356 481 
L 2356 0 
L 1766 0 
Q 1100 0 847 248 
Q 594 497 594 1153 
L 594 3053 
L 172 3053 
L 172 3500 
L 594 3500 
L 594 4494 
L 1172 4494 
z
" transform="scale(0.015625)"/>
      <path id="DejaVuSans-61" d="M 2194 1759 
Q 1497 1759 1228 1600 
Q 959 1441 959 1056 
Q 959 750 1161 570 
Q 1363 391 1709 391 
Q 2188 391 2477 730 
Q 2766 1069 2766 1631 
L 2766 1759 
L 2194 1759 
z
M 3341 1997 
L 3341 0 
L 2766 0 
L 2766 531 
Q 2569 213 2275 61 
Q 1981 -91 1556 -91 
Q 1019 -91 701 211 
Q 384 513 384 1019 
Q 384 1609 779 1909 
Q 1175 2209 1959 2209 
L 2766 2209 
L 2766 2266 
Q 2766 2663 2505 2880 
Q 2244 3097 1772 3097 
Q 1472 3097 1187 3025 
Q 903 2953 641 2809 
L 641 3341 
Q 956 3463 1253 3523 
Q 1550 3584 1831 3584 
Q 2591 3584 2966 3190 
Q 3341 2797 3341 1997 
z
" transform="scale(0.015625)"/>
      <path id="DejaVuSans-20" transform="scale(0.015625)"/>
      <path id="DejaVuSans-4f" d="M 2522 4238 
Q 1834 4238 1429 3725 
Q 1025 3213 1025 2328 
Q 1025 1447 1429 934 
Q 1834 422 2522 422 
Q 3209 422 3611 934 
Q 4013 1447 4013 2328 
Q 4013 3213 3611 3725 
Q 3209 4238 2522 4238 
z
M 2522 4750 
Q 3503 4750 4090 4092 
Q 4678 3434 4678 2328 
Q 4678 1225 4090 567 
Q 3503 -91 2522 -91 
Q 1538 -91 948 565 
Q 359 1222 359 2328 
Q 359 3434 948 4092 
Q 1538 4750 2522 4750 
z
" transform="scale(0.015625)"/>
      <path id="DejaVuSans-6e" d="M 3513 2113 
L 3513 0 
L 2938 0 
L 2938 2094 
Q 2938 2591 2744 2837 
Q 2550 3084 2163 3084 
Q 1697 3084 1428 2787 
Q 1159 2491 1159 1978 
L 1159 0 
L 581 0 
L 581 3500 
L 1159 3500 
L 1159 2956 
Q 1366 3272 1645 3428 
Q 1925 3584 2291 3584 
Q 2894 3584 3203 3211 
Q 3513 2838 3513 2113 
z
" transform="scale(0.015625)"/>
      <path id="DejaVuSans-6f" d="M 1959 3097 
Q 1497 3097 1228 2736 
Q 959 2375 959 1747 
Q 959 1119 1226 758 
Q 1494 397 1959 397 
Q 2419 397 2687 759 
Q 2956 1122 2956 1747 
Q 2956 2369 2687 2733 
Q 2419 3097 1959 3097 
z
M 1959 3584 
Q 2709 3584 3137 3096 
Q 3566 2609 3566 1747 
Q 3566 888 3137 398 
Q 2709 -91 1959 -91 
Q 1206 -91 779 398 
Q 353 888 353 1747 
Q 353 2609 779 3096 
Q 1206 3584 1959 3584 
z
" transform="scale(0.015625)"/>
      <path id="DejaVuSans-6d" d="M 3328 2828 
Q 3544 3216 3844 3400 
Q 4144 3584 4550 3584 
Q 5097 3584 5394 3201 
Q 5691 2819 5691 2113 
L 5691 0 
L 5113 0 
L 5113 2094 
Q 5113 2597 4934 2840 
Q 4756 3084 4391 3084 
Q 3944 3084 3684 2787 
Q 3425 2491 3425 1978 
L 3425 0 
L 2847 0 
L 2847 2094 
Q 2847 2600 2669 2842 
Q 2491 3084 2119 3084 
Q 1678 3084 1418 2786 
Q 1159 2488 1159 1978 
L 1159 0 
L 581 0 
L 581 3500 
L 1159 3500 
L 1159 2956 
Q 1356 3278 1631 3431 
Q 1906 3584 2284 3584 
Q 2666 3584 2933 3390 
Q 3200 3197 3328 2828 
z
" transform="scale(0.015625)"/>
      <path id="DejaVuSans-63" d="M 3122 3366 
L 3122 2828 
Q 2878 2963 2633 3030 
Q 2388 3097 2138 3097 
Q 1578 3097 1268 2742 
Q 959 2388 959 1747 
Q 959 1106 1268 751 
Q 1578 397 2138 397 
Q 2388 397 2633 464 
Q 2878 531 3122 666 
L 3122 134 
Q 2881 22 2623 -34 
Q 2366 -91 2075 -91 
Q 1284 -91 818 406 
Q 353 903 353 1747 
Q 353 2603 823 3093 
Q 1294 3584 2113 3584 
Q 2378 3584 2631 3529 
Q 2884 3475 3122 3366 
z
" transform="scale(0.015625)"/>
      <path id="DejaVuSans-75" d="M 544 1381 
L 544 3500 
L 1119 3500 
L 1119 1403 
Q 1119 906 1312 657 
Q 1506 409 1894 409 
Q 2359 409 2629 706 
Q 2900 1003 2900 1516 
L 2900 3500 
L 3475 3500 
L 3475 0 
L 2900 0 
L 2900 538 
Q 2691 219 2414 64 
Q 2138 -91 1772 -91 
Q 1169 -91 856 284 
Q 544 659 544 1381 
z
M 1991 3584 
L 1991 3584 
z
" transform="scale(0.015625)"/>
      <path id="DejaVuSans-2014" d="M 313 1978 
L 6088 1978 
L 6088 1528 
L 313 1528 
L 313 1978 
z
" transform="scale(0.015625)"/>
      <path id="DejaVuSans-46" d="M 628 4666 
L 3309 4666 
L 3309 4134 
L 1259 4134 
L 1259 2759 
L 3109 2759 
L 3109 2228 
L 1259 2228 
L 1259 0 
L 628 0 
L 628 4666 
z
" transform="scale(0.015625)"/>
      <path id="DejaVuSans-50" d="M 1259 4147 
L 1259 2394 
L 2053 2394 
Q 2494 2394 2734 2622 
Q 2975 2850 2975 3272 
Q 2975 3691 2734 3919 
Q 2494 4147 2053 4147 
L 1259 4147 
z
M 628 4666 
L 2053 4666 
Q 2838 4666 3239 4311 
Q 3641 3956 3641 3272 
Q 3641 2581 3239 2228 
Q 2838 1875 2053 1875 
L 1259 1875 
L 1259 0 
L 628 0 
L 628 4666 
z
" transform="scale(0.015625)"/>
      <path id="DejaVuSans-67" d="M 2906 1791 
Q 2906 2416 2648 2759 
Q 2391 3103 1925 3103 
Q 1463 3103 1205 2759 
Q 947 2416 947 1791 
Q 947 1169 1205 825 
Q 1463 481 1925 481 
Q 2391 481 2648 825 
Q 2906 1169 2906 1791 
z
M 3481 434 
Q 3481 -459 3084 -895 
Q 2688 -1331 1869 -1331 
Q 1566 -1331 1297 -1286 
Q 1028 -1241 775 -1147 
L 775 -588 
Q 1028 -725 1275 -790 
Q 1522 -856 1778 -856 
Q 2344 -856 2625 -561 
Q 2906 -266 2906 331 
L 2906 616 
Q 2728 306 2450 153 
Q 2172 0 1784 0 
Q 1141 0 747 490 
Q 353 981 353 1791 
Q 353 2603 747 3093 
Q 1141 3584 1784 3584 
Q 2172 3584 2450 3431 
Q 2728 3278 2906 2969 
L 2906 3500 
L 3481 3500 
L 3481 434 
z
" transform="scale(0.015625)"/>
      <path id="DejaVuSans-72" d="M 2631 2963 
Q 2534 3019 2420 3045 
Q 2306 3072 2169 3072 
Q 1681 3072 1420 2755 
Q 1159 2438 1159 1844 
L 1159 0 
L 581 0 
L 581 3500 
L 1159 3500 
L 1159 2956 
Q 1341 3275 1631 3429 
Q 1922 3584 2338 3584 
Q 2397 3584 2469 3576 
Q 2541 3569 2628 3553 
L 2631 2963 
z
" transform="scale(0.015625)"/>
      <path id="DejaVuSans-53" d="M 3425 4513 
L 3425 3897 
Q 3066 4069 2747 4153 
Q 2428 4238 2131 4238 
Q 1616 4238 1336 4038 
Q 1056 3838 1056 3469 
Q 1056 3159 1242 3001 
Q 1428 2844 1947 2747 
L 2328 2669 
Q 3034 2534 3370 2195 
Q 3706 1856 3706 1288 
Q 3706 609 3251 259 
Q 2797 -91 1919 -91 
Q 1588 -91 1214 -16 
Q 841 59 441 206 
L 441 856 
Q 825 641 1194 531 
Q 1563 422 1919 422 
Q 2459 422 2753 634 
Q 3047 847 3047 1241 
Q 3047 1584 2836 1778 
Q 2625 1972 2144 2069 
L 1759 2144 
Q 1053 2284 737 2584 
Q 422 2884 422 3419 
Q 422 4038 858 4394 
Q 1294 4750 2059 4750 
Q 2388 4750 2728 4690 
Q 3069 4631 3425 4513 
z
" transform="scale(0.015625)"/>
      <path id="DejaVuSans-68" d="M 3513 2113 
L 3513 0 
L 2938 0 
L 2938 2094 
Q 2938 2591 2744 2837 
Q 2550 3084 2163 3084 
Q 1697 3084 1428 2787 
Q 1159 2491 1159 1978 
L 1159 0 
L 581 0 
L 581 4863 
L 1159 4863 
L 1159 2956 
Q 1366 3272 1645 3428 
Q 1925 3584 2291 3584 
Q 2894 3584 3203 3211 
Q 3513 2838 3513 2113 
z
" transform="scale(0.015625)"/>
     </defs>
     <use xlink:href="#DejaVuSans-44"/>
     <use xlink:href="#DejaVuSans-65" x="77.001953"/>
     <use xlink:href="#DejaVuSans-6c" x="138.525391"/>
     <use xlink:href="#DejaVuSans-74" x="166.308594"/>
     <use xlink:href="#DejaVuSans-61" x="205.517578"/>
     <use xlink:href="#DejaVuSans-20" x="266.796875"/>
     <use xlink:href="#DejaVuSans-4f" x="298.583984"/>
     <use xlink:href="#DejaVuSans-6e" x="377.294922"/>
     <use xlink:href="#DejaVuSans-74" x="440.673828"/>
     <use xlink:href="#DejaVuSans-6f" x="479.882812"/>
     <use xlink:href="#DejaVuSans-6d" x="541.064453"/>
     <use xlink:href="#DejaVuSans-6f" x="638.476562"/>
     <use xlink:href="#DejaVuSans-6c" x="699.658203"/>
     <use xlink:href="#DejaVuSans-65" x="727.441406"/>
     <use xlink:href="#DejaVuSans-63" x="788.964844"/>
     <use xlink:href="#DejaVuSans-75" x="843.945312"/>
     <use xlink:href="#DejaVuSans-6c" x="907.324219"/>
     <use xlink:href="#DejaVuSans-65" x="935.107422"/>
     <use xlink:href="#DejaVuSans-20" x="996.630859"/>
     <use xlink:href="#DejaVuSans-2014" x="1028.417969"/>
     <use xlink:href="#DejaVuSans-20" x="1128.417969"/>
     <use xlink:href="#DejaVuSans-46" x="1160.205078"/>
     <use xlink:href="#DejaVuSans-75" x="1212.224609"/>
     <use xlink:href="#DejaVuSans-6c" x="1275.603516"/>
     <use xlink:href="#DejaVuSans-6c" x="1303.386719"/>
     <use xlink:href="#DejaVuSans-20" x="1331.169922"/>
     <use xlink:href="#DejaVuSans-50" x="1362.957031"/>
     <use xlink:href="#DejaVuSans-65" x="1419.634766"/>
     <use xlink:href="#DejaVuSans-6e" x="1481.158203"/>
     <use xlink:href="#DejaVuSans-74" x="1544.537109"/>
     <use xlink:href="#DejaVuSans-61" x="1583.746094"/>
     <use xlink:href="#DejaVuSans-67" x="1645.025391"/>
     <use xlink:href="#DejaVuSans-72" x="1708.501953"/>
     <use xlink:href="#DejaVuSans-61" x="1749.615234"/>
     <use xlink:href="#DejaVuSans-6d" x="1810.894531"/>
     <use xlink:href="#DejaVuSans-20" x="1908.306641"/>
     <use xlink:href="#DejaVuSans-53" x="1940.09375"/>
     <use xlink:href="#DejaVuSans-63" x="2003.570312"/>
     <use xlink:href="#DejaVuSans-68" x="2058.550781"/>
     <use xlink:href="#DejaVuSans-65" x="2121.929688"/>
     <use xlink:href="#DejaVuSans-6d" x="2183.453125"/>
     <use xlink:href="#DejaVuSans-61" x="2280.865234"/>
    </g>
   </g>
   <g id="PathCollection_6">
    <defs>
     <path id="m44e59a6130" d="M -8.062258 8.062258 
L 8.062258 -8.062258 
M -8.062258 -8.062258 
L 8.062258 8.062258 
" style="stroke: #8c564b; stroke-width: 1.5"/>
    </defs>
    <g clip-path="url(#p15efd84253)">
     <use xlink:href="#m44e59a6130" x="230.4" y="173.998486" style="fill: #8c564b; stroke: #8c564b; stroke-width: 1.5"/>
    </g>
   </g>
   <g id="PathCollection_7">
    <defs>
     <path id="m93f32029d7" d="M -8.062258 8.062258 
L 8.062258 -8.062258 
M -8.062258 -8.062258 
L 8.062258 8.062258 
" style="stroke: #e377c2; stroke-width: 1.5"/>
    </defs>
    <g clip-path="url(#p15efd84253)">
     <use xlink:href="#m93f32029d7" x="147.254581" y="318.010575" style="fill: #e377c2; stroke: #e377c2; stroke-width: 1.5"/>
    </g>
   </g>
   <g id="PathCollection_8">
    <defs>
     <path id="m0b1587bcc8" d="M -8.062258 8.062258 
L 8.062258 -8.062258 
M -8.062258 -8.062258 
L 8.062258 8.062258 
" style="stroke: #7f7f7f; stroke-width: 1.5"/>
    </defs>
    <g clip-path="url(#p15efd84253)">
     <use xlink:href="#m0b1587bcc8" x="313.545419" y="318.010575" style="fill: #7f7f7f; stroke: #7f7f7f; stroke-width: 1.5"/>
    </g>
   </g>
   <g id="PathCollection_9">
    <defs>
     <path id="m5ed6440b51" d="M -10.246951 10.246951 
L 10.246951 -10.246951 
M -10.246951 -10.246951 
L 10.246951 10.246951 
" style="stroke: #bcbd22; stroke-width: 1.5"/>
    </defs>
    <g clip-path="url(#p15efd84253)">
     <use xlink:href="#m5ed6440b51" x="230.4" y="195.33361" style="fill: #bcbd22; stroke: #bcbd22; stroke-width: 1.5"/>
    </g>
   </g>
   <g id="PathCollection_10">
    <defs>
     <path id="m4f79b64c8a" d="M -10.246951 10.246951 
L 10.246951 -10.246951 
M -10.246951 -10.246951 
L 10.246951 10.246951 
" style="stroke: #17becf; stroke-width: 1.5"/>
    </defs>
    <g clip-path="url(#p15efd84253)">
     <use xlink:href="#m4f79b64c8a" x="230.4" y="270.006545" style="fill: #17becf; stroke: #17becf; stroke-width: 1.5"/>
    </g>
   </g>
   <g id="PathCollection_11">
    <defs>
     <path id="mbe61a1b59c" d="M -10.246951 10.246951 
L 10.246951 -10.246951 
M -10.246951 -10.246951 
L 10.246951 10.246951 
" style="stroke: #1f77b4; stroke-width: 1.5"/>
    </defs>
    <g clip-path="url(#p15efd84253)">
     <use xlink:href="#mbe61a1b59c" x="230.4" y="344.679481" style="fill: #1f77b4; stroke: #1f77b4; stroke-width: 1.5"/>
    </g>
   </g>
  </g>
 </g>
 <defs>
  <clipPath id="p15efd84253">
   <rect x="7.2" y="37.3575" width="446.4" height="424.551629"/>
  </clipPath>
 </defs>
</svg>
